<mxfile host="app.diagrams.net" modified="2021-03-01T07:24:49.050Z" agent="5.0 (Windows NT 10.0; Win64; x64) AppleWebKit/537.36 (KHTML, like Gecko) Chrome/88.0.4324.182 Safari/537.36 Edg/88.0.705.81" etag="Aa3MqF3ji0MwM2btqfJj" version="14.4.3" type="github">
  <diagram id="8lDUnLDL_3OlkThyfn1n" name="第 1 页">
    <mxGraphModel dx="920" dy="1504" grid="1" gridSize="10" guides="1" tooltips="1" connect="1" arrows="1" fold="1" page="1" pageScale="1" pageWidth="827" pageHeight="1169" math="0" shadow="0">
      <root>
        <mxCell id="0" />
        <mxCell id="1" parent="0" />
        <mxCell id="LmpacXtTbR7bn4Z3oa6z-1" value="" style="endArrow=classic;html=1;strokeWidth=3;" parent="1" edge="1">
          <mxGeometry width="50" height="50" relative="1" as="geometry">
            <mxPoint x="80" y="360" as="sourcePoint" />
            <mxPoint x="760" y="360" as="targetPoint" />
          </mxGeometry>
        </mxCell>
        <mxCell id="LmpacXtTbR7bn4Z3oa6z-2" value="" style="endArrow=classic;html=1;strokeWidth=3;" parent="1" edge="1">
          <mxGeometry width="50" height="50" relative="1" as="geometry">
            <mxPoint x="80" y="520" as="sourcePoint" />
            <mxPoint x="80" y="120" as="targetPoint" />
          </mxGeometry>
        </mxCell>
        <mxCell id="LmpacXtTbR7bn4Z3oa6z-3" value="" style="endArrow=none;html=1;strokeWidth=3;" parent="1" edge="1">
          <mxGeometry width="50" height="50" relative="1" as="geometry">
            <mxPoint x="80" y="360" as="sourcePoint" />
            <mxPoint x="200" y="200" as="targetPoint" />
          </mxGeometry>
        </mxCell>
        <mxCell id="LmpacXtTbR7bn4Z3oa6z-4" value="" style="endArrow=none;html=1;strokeWidth=3;" parent="1" edge="1">
          <mxGeometry width="50" height="50" relative="1" as="geometry">
            <mxPoint x="200" y="360" as="sourcePoint" />
            <mxPoint x="200" y="200" as="targetPoint" />
          </mxGeometry>
        </mxCell>
        <mxCell id="LmpacXtTbR7bn4Z3oa6z-5" value="" style="endArrow=none;html=1;strokeWidth=3;" parent="1" edge="1">
          <mxGeometry width="50" height="50" relative="1" as="geometry">
            <mxPoint x="320" y="360" as="sourcePoint" />
            <mxPoint x="320" y="200" as="targetPoint" />
          </mxGeometry>
        </mxCell>
        <mxCell id="LmpacXtTbR7bn4Z3oa6z-6" value="" style="endArrow=none;html=1;strokeWidth=3;" parent="1" edge="1">
          <mxGeometry width="50" height="50" relative="1" as="geometry">
            <mxPoint x="200.00000000000006" y="360" as="sourcePoint" />
            <mxPoint x="320" y="200" as="targetPoint" />
          </mxGeometry>
        </mxCell>
        <mxCell id="LmpacXtTbR7bn4Z3oa6z-7" value="" style="endArrow=none;html=1;strokeWidth=3;" parent="1" edge="1">
          <mxGeometry width="50" height="50" relative="1" as="geometry">
            <mxPoint x="440" y="360" as="sourcePoint" />
            <mxPoint x="440" y="200" as="targetPoint" />
          </mxGeometry>
        </mxCell>
        <mxCell id="LmpacXtTbR7bn4Z3oa6z-8" value="" style="endArrow=none;html=1;strokeWidth=3;" parent="1" edge="1">
          <mxGeometry width="50" height="50" relative="1" as="geometry">
            <mxPoint x="320" y="360" as="sourcePoint" />
            <mxPoint x="440" y="200" as="targetPoint" />
          </mxGeometry>
        </mxCell>
        <mxCell id="LmpacXtTbR7bn4Z3oa6z-9" value="" style="endArrow=none;html=1;strokeWidth=3;" parent="1" edge="1">
          <mxGeometry width="50" height="50" relative="1" as="geometry">
            <mxPoint x="560" y="360" as="sourcePoint" />
            <mxPoint x="560" y="200" as="targetPoint" />
          </mxGeometry>
        </mxCell>
        <mxCell id="LmpacXtTbR7bn4Z3oa6z-10" value="" style="endArrow=none;html=1;strokeWidth=3;" parent="1" edge="1">
          <mxGeometry width="50" height="50" relative="1" as="geometry">
            <mxPoint x="440" y="360" as="sourcePoint" />
            <mxPoint x="560" y="200" as="targetPoint" />
          </mxGeometry>
        </mxCell>
        <mxCell id="LmpacXtTbR7bn4Z3oa6z-11" value="" style="endArrow=none;html=1;strokeWidth=3;" parent="1" edge="1">
          <mxGeometry width="50" height="50" relative="1" as="geometry">
            <mxPoint x="680" y="360" as="sourcePoint" />
            <mxPoint x="680" y="200" as="targetPoint" />
          </mxGeometry>
        </mxCell>
        <mxCell id="LmpacXtTbR7bn4Z3oa6z-12" value="" style="endArrow=none;html=1;strokeWidth=3;" parent="1" edge="1">
          <mxGeometry width="50" height="50" relative="1" as="geometry">
            <mxPoint x="560" y="360" as="sourcePoint" />
            <mxPoint x="680" y="200" as="targetPoint" />
          </mxGeometry>
        </mxCell>
        <mxCell id="LmpacXtTbR7bn4Z3oa6z-13" value="" style="endArrow=none;html=1;strokeWidth=3;fillColor=#f8cecc;strokeColor=#b85450;" parent="1" edge="1">
          <mxGeometry width="50" height="50" relative="1" as="geometry">
            <mxPoint x="80" y="200" as="sourcePoint" />
            <mxPoint x="680" y="200" as="targetPoint" />
          </mxGeometry>
        </mxCell>
        <mxCell id="LmpacXtTbR7bn4Z3oa6z-15" value="" style="endArrow=none;html=1;strokeWidth=3;" parent="1" edge="1">
          <mxGeometry width="50" height="50" relative="1" as="geometry">
            <mxPoint x="80" y="480" as="sourcePoint" />
            <mxPoint x="170" y="480" as="targetPoint" />
          </mxGeometry>
        </mxCell>
        <mxCell id="LmpacXtTbR7bn4Z3oa6z-17" value="" style="endArrow=none;dashed=1;html=1;strokeWidth=3;" parent="1" edge="1">
          <mxGeometry width="50" height="50" relative="1" as="geometry">
            <mxPoint x="170" y="240" as="sourcePoint" />
            <mxPoint x="170" y="480" as="targetPoint" />
          </mxGeometry>
        </mxCell>
        <mxCell id="LmpacXtTbR7bn4Z3oa6z-18" value="" style="endArrow=none;html=1;strokeWidth=3;fillColor=#d5e8d4;strokeColor=#82b366;" parent="1" edge="1">
          <mxGeometry width="50" height="50" relative="1" as="geometry">
            <mxPoint x="80.00000000000006" y="239.9999999999999" as="sourcePoint" />
            <mxPoint x="680" y="239.9999999999999" as="targetPoint" />
          </mxGeometry>
        </mxCell>
        <mxCell id="LmpacXtTbR7bn4Z3oa6z-19" value="" style="endArrow=none;dashed=1;html=1;strokeWidth=3;" parent="1" edge="1">
          <mxGeometry width="50" height="50" relative="1" as="geometry">
            <mxPoint x="290" y="239.9999999999999" as="sourcePoint" />
            <mxPoint x="290" y="480" as="targetPoint" />
          </mxGeometry>
        </mxCell>
        <mxCell id="LmpacXtTbR7bn4Z3oa6z-21" value="" style="endArrow=none;dashed=1;html=1;strokeWidth=3;" parent="1" edge="1">
          <mxGeometry width="50" height="50" relative="1" as="geometry">
            <mxPoint x="530" y="239.9999999999999" as="sourcePoint" />
            <mxPoint x="530" y="480" as="targetPoint" />
          </mxGeometry>
        </mxCell>
        <mxCell id="LmpacXtTbR7bn4Z3oa6z-22" value="" style="endArrow=none;dashed=1;html=1;strokeWidth=3;" parent="1" edge="1">
          <mxGeometry width="50" height="50" relative="1" as="geometry">
            <mxPoint x="412" y="240" as="sourcePoint" />
            <mxPoint x="412" y="480" as="targetPoint" />
          </mxGeometry>
        </mxCell>
        <mxCell id="LmpacXtTbR7bn4Z3oa6z-23" value="" style="endArrow=none;dashed=1;html=1;strokeWidth=3;" parent="1" edge="1">
          <mxGeometry width="50" height="50" relative="1" as="geometry">
            <mxPoint x="650" y="239.9999999999999" as="sourcePoint" />
            <mxPoint x="650" y="480" as="targetPoint" />
          </mxGeometry>
        </mxCell>
        <mxCell id="LmpacXtTbR7bn4Z3oa6z-25" value="&lt;font style=&quot;font-size: 16px&quot;&gt;CNT&lt;/font&gt;" style="text;html=1;strokeColor=none;fillColor=none;align=center;verticalAlign=middle;whiteSpace=wrap;rounded=0;" parent="1" vertex="1">
          <mxGeometry x="20" y="120" width="60" height="40" as="geometry" />
        </mxCell>
        <mxCell id="LmpacXtTbR7bn4Z3oa6z-26" value="&lt;font style=&quot;font-size: 16px&quot;&gt;ARR&lt;br&gt;&lt;/font&gt;" style="text;html=1;strokeColor=none;fillColor=none;align=center;verticalAlign=middle;whiteSpace=wrap;rounded=0;" parent="1" vertex="1">
          <mxGeometry x="20" y="180" width="60" height="40" as="geometry" />
        </mxCell>
        <mxCell id="LmpacXtTbR7bn4Z3oa6z-27" value="&lt;font style=&quot;font-size: 16px&quot;&gt;CCRx&lt;/font&gt;" style="text;html=1;strokeColor=none;fillColor=none;align=center;verticalAlign=middle;whiteSpace=wrap;rounded=0;" parent="1" vertex="1">
          <mxGeometry x="20" y="220" width="60" height="40" as="geometry" />
        </mxCell>
        <mxCell id="LmpacXtTbR7bn4Z3oa6z-28" value="&lt;font style=&quot;font-size: 16px&quot;&gt;0&lt;/font&gt;" style="text;html=1;strokeColor=none;fillColor=none;align=center;verticalAlign=middle;whiteSpace=wrap;rounded=0;" parent="1" vertex="1">
          <mxGeometry x="20" y="460" width="60" height="40" as="geometry" />
        </mxCell>
        <mxCell id="LmpacXtTbR7bn4Z3oa6z-29" value="&lt;font style=&quot;font-size: 16px&quot;&gt;IO逻辑&lt;/font&gt;" style="text;html=1;strokeColor=none;fillColor=none;align=center;verticalAlign=middle;whiteSpace=wrap;rounded=0;" parent="1" vertex="1">
          <mxGeometry x="20" y="420" width="60" height="40" as="geometry" />
        </mxCell>
        <mxCell id="LmpacXtTbR7bn4Z3oa6z-30" value="&lt;font style=&quot;font-size: 16px&quot;&gt;1&lt;/font&gt;" style="text;html=1;strokeColor=none;fillColor=none;align=center;verticalAlign=middle;whiteSpace=wrap;rounded=0;" parent="1" vertex="1">
          <mxGeometry x="20" y="380" width="60" height="40" as="geometry" />
        </mxCell>
        <mxCell id="LmpacXtTbR7bn4Z3oa6z-32" value="" style="endArrow=none;dashed=1;html=1;strokeWidth=3;" parent="1" edge="1">
          <mxGeometry width="50" height="50" relative="1" as="geometry">
            <mxPoint x="200" y="480" as="sourcePoint" />
            <mxPoint x="200" y="360" as="targetPoint" />
          </mxGeometry>
        </mxCell>
        <mxCell id="LmpacXtTbR7bn4Z3oa6z-33" value="" style="endArrow=none;dashed=1;html=1;strokeWidth=3;" parent="1" edge="1">
          <mxGeometry width="50" height="50" relative="1" as="geometry">
            <mxPoint x="320" y="480" as="sourcePoint" />
            <mxPoint x="320" y="360" as="targetPoint" />
          </mxGeometry>
        </mxCell>
        <mxCell id="LmpacXtTbR7bn4Z3oa6z-34" value="" style="endArrow=none;dashed=1;html=1;strokeWidth=3;" parent="1" edge="1">
          <mxGeometry width="50" height="50" relative="1" as="geometry">
            <mxPoint x="440" y="480" as="sourcePoint" />
            <mxPoint x="440" y="360" as="targetPoint" />
          </mxGeometry>
        </mxCell>
        <mxCell id="LmpacXtTbR7bn4Z3oa6z-35" value="" style="endArrow=none;dashed=1;html=1;strokeWidth=3;" parent="1" edge="1">
          <mxGeometry width="50" height="50" relative="1" as="geometry">
            <mxPoint x="560" y="480" as="sourcePoint" />
            <mxPoint x="560" y="360" as="targetPoint" />
          </mxGeometry>
        </mxCell>
        <mxCell id="LmpacXtTbR7bn4Z3oa6z-36" value="" style="endArrow=none;dashed=1;html=1;strokeWidth=3;" parent="1" edge="1">
          <mxGeometry width="50" height="50" relative="1" as="geometry">
            <mxPoint x="680" y="480" as="sourcePoint" />
            <mxPoint x="680" y="360" as="targetPoint" />
          </mxGeometry>
        </mxCell>
        <mxCell id="LmpacXtTbR7bn4Z3oa6z-38" value="" style="endArrow=none;html=1;strokeWidth=3;" parent="1" edge="1">
          <mxGeometry width="50" height="50" relative="1" as="geometry">
            <mxPoint x="200" y="479.5" as="sourcePoint" />
            <mxPoint x="290" y="479.5" as="targetPoint" />
          </mxGeometry>
        </mxCell>
        <mxCell id="LmpacXtTbR7bn4Z3oa6z-39" value="" style="endArrow=none;html=1;strokeWidth=3;" parent="1" edge="1">
          <mxGeometry width="50" height="50" relative="1" as="geometry">
            <mxPoint x="324" y="479.5" as="sourcePoint" />
            <mxPoint x="414" y="479.5" as="targetPoint" />
          </mxGeometry>
        </mxCell>
        <mxCell id="LmpacXtTbR7bn4Z3oa6z-40" value="" style="endArrow=none;html=1;strokeWidth=3;" parent="1" edge="1">
          <mxGeometry width="50" height="50" relative="1" as="geometry">
            <mxPoint x="440" y="479.5" as="sourcePoint" />
            <mxPoint x="530" y="479.5" as="targetPoint" />
          </mxGeometry>
        </mxCell>
        <mxCell id="LmpacXtTbR7bn4Z3oa6z-41" value="" style="endArrow=none;html=1;strokeWidth=3;" parent="1" edge="1">
          <mxGeometry width="50" height="50" relative="1" as="geometry">
            <mxPoint x="560" y="479.5" as="sourcePoint" />
            <mxPoint x="650" y="479.5" as="targetPoint" />
          </mxGeometry>
        </mxCell>
        <mxCell id="LmpacXtTbR7bn4Z3oa6z-42" value="" style="endArrow=none;html=1;strokeWidth=3;" parent="1" edge="1">
          <mxGeometry width="50" height="50" relative="1" as="geometry">
            <mxPoint x="170" y="400" as="sourcePoint" />
            <mxPoint x="200" y="400" as="targetPoint" />
          </mxGeometry>
        </mxCell>
        <mxCell id="LmpacXtTbR7bn4Z3oa6z-43" value="" style="endArrow=none;html=1;strokeWidth=3;" parent="1" edge="1">
          <mxGeometry width="50" height="50" relative="1" as="geometry">
            <mxPoint x="290" y="399.71" as="sourcePoint" />
            <mxPoint x="320" y="399.71" as="targetPoint" />
          </mxGeometry>
        </mxCell>
        <mxCell id="LmpacXtTbR7bn4Z3oa6z-46" value="" style="endArrow=none;html=1;strokeWidth=3;" parent="1" edge="1">
          <mxGeometry width="50" height="50" relative="1" as="geometry">
            <mxPoint x="414" y="399.71000000000004" as="sourcePoint" />
            <mxPoint x="444" y="399.71000000000004" as="targetPoint" />
          </mxGeometry>
        </mxCell>
        <mxCell id="LmpacXtTbR7bn4Z3oa6z-47" value="" style="endArrow=none;html=1;strokeWidth=3;" parent="1" edge="1">
          <mxGeometry width="50" height="50" relative="1" as="geometry">
            <mxPoint x="530" y="399.71000000000004" as="sourcePoint" />
            <mxPoint x="560" y="399.71000000000004" as="targetPoint" />
          </mxGeometry>
        </mxCell>
        <mxCell id="LmpacXtTbR7bn4Z3oa6z-48" value="" style="endArrow=none;html=1;strokeWidth=3;" parent="1" edge="1">
          <mxGeometry width="50" height="50" relative="1" as="geometry">
            <mxPoint x="650" y="399.71000000000004" as="sourcePoint" />
            <mxPoint x="680" y="399.71000000000004" as="targetPoint" />
          </mxGeometry>
        </mxCell>
        <mxCell id="LmpacXtTbR7bn4Z3oa6z-49" value="&lt;font style=&quot;font-size: 16px&quot;&gt;t&lt;/font&gt;" style="text;html=1;strokeColor=none;fillColor=none;align=center;verticalAlign=middle;whiteSpace=wrap;rounded=0;" parent="1" vertex="1">
          <mxGeometry x="710" y="320" width="60" height="40" as="geometry" />
        </mxCell>
        <mxCell id="LmpacXtTbR7bn4Z3oa6z-50" value="&lt;font style=&quot;font-size: 16px&quot;&gt;t1&lt;/font&gt;" style="text;html=1;strokeColor=none;fillColor=none;align=center;verticalAlign=middle;whiteSpace=wrap;rounded=0;" parent="1" vertex="1">
          <mxGeometry x="120" y="350" width="60" height="40" as="geometry" />
        </mxCell>
        <mxCell id="LmpacXtTbR7bn4Z3oa6z-51" value="&lt;font style=&quot;font-size: 16px&quot;&gt;t2&lt;/font&gt;" style="text;html=1;strokeColor=none;fillColor=none;align=center;verticalAlign=middle;whiteSpace=wrap;rounded=0;" parent="1" vertex="1">
          <mxGeometry x="190" y="350" width="60" height="40" as="geometry" />
        </mxCell>
        <mxCell id="LmpacXtTbR7bn4Z3oa6z-52" value="&lt;font style=&quot;font-size: 16px&quot;&gt;t3&lt;/font&gt;" style="text;html=1;strokeColor=none;fillColor=none;align=center;verticalAlign=middle;whiteSpace=wrap;rounded=0;" parent="1" vertex="1">
          <mxGeometry x="250" y="350" width="60" height="40" as="geometry" />
        </mxCell>
        <mxCell id="LmpacXtTbR7bn4Z3oa6z-54" value="&lt;font style=&quot;font-size: 16px&quot;&gt;t4&lt;/font&gt;" style="text;html=1;strokeColor=none;fillColor=none;align=center;verticalAlign=middle;whiteSpace=wrap;rounded=0;" parent="1" vertex="1">
          <mxGeometry x="300" y="350" width="60" height="40" as="geometry" />
        </mxCell>
        <mxCell id="LmpacXtTbR7bn4Z3oa6z-55" value="&lt;font style=&quot;font-size: 16px&quot;&gt;t6&lt;/font&gt;" style="text;html=1;strokeColor=none;fillColor=none;align=center;verticalAlign=middle;whiteSpace=wrap;rounded=0;" parent="1" vertex="1">
          <mxGeometry x="420" y="350" width="60" height="40" as="geometry" />
        </mxCell>
        <mxCell id="LmpacXtTbR7bn4Z3oa6z-56" value="&lt;font style=&quot;font-size: 16px&quot;&gt;t7&lt;/font&gt;" style="text;html=1;strokeColor=none;fillColor=none;align=center;verticalAlign=middle;whiteSpace=wrap;rounded=0;" parent="1" vertex="1">
          <mxGeometry x="490" y="350" width="60" height="40" as="geometry" />
        </mxCell>
        <mxCell id="LmpacXtTbR7bn4Z3oa6z-57" value="&lt;font style=&quot;font-size: 16px&quot;&gt;t8&lt;/font&gt;" style="text;html=1;strokeColor=none;fillColor=none;align=center;verticalAlign=middle;whiteSpace=wrap;rounded=0;" parent="1" vertex="1">
          <mxGeometry x="540" y="350" width="60" height="40" as="geometry" />
        </mxCell>
        <mxCell id="LmpacXtTbR7bn4Z3oa6z-58" value="&lt;font style=&quot;font-size: 16px&quot;&gt;t9&lt;/font&gt;" style="text;html=1;strokeColor=none;fillColor=none;align=center;verticalAlign=middle;whiteSpace=wrap;rounded=0;" parent="1" vertex="1">
          <mxGeometry x="610" y="350" width="60" height="40" as="geometry" />
        </mxCell>
        <mxCell id="LmpacXtTbR7bn4Z3oa6z-59" value="&lt;font style=&quot;font-size: 16px&quot;&gt;t10&lt;/font&gt;" style="text;html=1;strokeColor=none;fillColor=none;align=center;verticalAlign=middle;whiteSpace=wrap;rounded=0;" parent="1" vertex="1">
          <mxGeometry x="660" y="350" width="60" height="40" as="geometry" />
        </mxCell>
        <mxCell id="LmpacXtTbR7bn4Z3oa6z-60" value="&lt;font style=&quot;font-size: 16px&quot;&gt;t5&lt;/font&gt;" style="text;html=1;strokeColor=none;fillColor=none;align=center;verticalAlign=middle;whiteSpace=wrap;rounded=0;" parent="1" vertex="1">
          <mxGeometry x="370" y="350" width="60" height="40" as="geometry" />
        </mxCell>
      </root>
    </mxGraphModel>
  </diagram>
</mxfile>
